<svg width="307" height="50" viewBox="0 0 307 50" fill="none" xmlns="http://www.w3.org/2000/svg">
<path d="M83.3352 22.9091C83.3352 25.7642 82.794 28.1932 81.7116 30.196C80.6378 32.1989 79.1719 33.7287 77.3139 34.7855C75.4645 35.8338 73.3849 36.358 71.0753 36.358C68.7486 36.358 66.6605 35.8295 64.8111 34.7727C62.9616 33.7159 61.5 32.1861 60.4261 30.1832C59.3523 28.1804 58.8153 25.7557 58.8153 22.9091C58.8153 20.054 59.3523 17.625 60.4261 15.6222C61.5 13.6193 62.9616 12.0937 64.8111 11.0455C66.6605 9.98864 68.7486 9.46023 71.0753 9.46023C73.3849 9.46023 75.4645 9.98864 77.3139 11.0455C79.1719 12.0937 80.6378 13.6193 81.7116 15.6222C82.794 17.625 83.3352 20.054 83.3352 22.9091ZM77.723 22.9091C77.723 21.0597 77.446 19.5 76.892 18.2301C76.3466 16.9602 75.5753 15.9972 74.5781 15.3409C73.581 14.6847 72.4134 14.3565 71.0753 14.3565C69.7372 14.3565 68.5696 14.6847 67.5724 15.3409C66.5753 15.9972 65.7997 16.9602 65.2457 18.2301C64.7003 19.5 64.4276 21.0597 64.4276 22.9091C64.4276 24.7585 64.7003 26.3182 65.2457 27.5881C65.7997 28.858 66.5753 29.821 67.5724 30.4773C68.5696 31.1335 69.7372 31.4616 71.0753 31.4616C72.4134 31.4616 73.581 31.1335 74.5781 30.4773C75.5753 29.821 76.3466 28.858 76.892 27.5881C77.446 26.3182 77.723 24.7585 77.723 22.9091ZM87.3335 43.3636V16.3636H92.7028V19.6619H92.9457C93.1843 19.1335 93.5295 18.5966 93.9812 18.0511C94.4414 17.4972 95.038 17.0369 95.771 16.6705C96.5124 16.2955 97.4329 16.108 98.5323 16.108C99.9641 16.108 101.285 16.483 102.495 17.233C103.706 17.9744 104.673 19.0952 105.397 20.5952C106.122 22.0866 106.484 23.9574 106.484 26.2074C106.484 28.3977 106.13 30.2472 105.423 31.7557C104.724 33.2557 103.77 34.3935 102.559 35.169C101.358 35.9361 100.011 36.3196 98.5195 36.3196C97.4627 36.3196 96.5636 36.1449 95.8221 35.7955C95.0891 35.446 94.4883 35.0071 94.0195 34.4787C93.5508 33.9418 93.1928 33.4006 92.9457 32.8551H92.7795V43.3636H87.3335ZM92.6644 26.1818C92.6644 27.3494 92.8263 28.3679 93.1502 29.2372C93.4741 30.1065 93.9428 30.7841 94.5565 31.2699C95.1701 31.7472 95.9158 31.9858 96.7937 31.9858C97.68 31.9858 98.43 31.7429 99.0437 31.2571C99.6573 30.7628 100.122 30.081 100.437 29.2116C100.761 28.3338 100.923 27.3239 100.923 26.1818C100.923 25.0483 100.765 24.0511 100.45 23.1903C100.135 22.3295 99.6701 21.6562 99.0565 21.1705C98.4428 20.6847 97.6886 20.4418 96.7937 20.4418C95.9073 20.4418 95.1573 20.6761 94.5437 21.1449C93.9386 21.6136 93.4741 22.2784 93.1502 23.1392C92.8263 24 92.6644 25.0142 92.6644 26.1818ZM119.064 36.3835C117.044 36.3835 115.305 35.9744 113.848 35.1562C112.399 34.3295 111.282 33.1619 110.498 31.6534C109.714 30.1364 109.322 28.3423 109.322 26.2713C109.322 24.2514 109.714 22.4787 110.498 20.9531C111.282 19.4276 112.386 18.2386 113.809 17.3864C115.241 16.5341 116.92 16.108 118.846 16.108C120.142 16.108 121.348 16.3168 122.464 16.7344C123.589 17.1435 124.569 17.7614 125.404 18.5881C126.248 19.4148 126.904 20.4545 127.373 21.7074C127.842 22.9517 128.076 24.4091 128.076 26.0795V27.5753H111.495V24.2003H122.95C122.95 23.4162 122.779 22.7216 122.439 22.1165C122.098 21.5114 121.625 21.0384 121.02 20.6974C120.423 20.348 119.728 20.1733 118.936 20.1733C118.109 20.1733 117.376 20.3651 116.737 20.7486C116.106 21.1236 115.612 21.6307 115.254 22.2699C114.896 22.9006 114.713 23.6037 114.704 24.3793V27.5881C114.704 28.5597 114.883 29.3991 115.241 30.1065C115.608 30.8139 116.123 31.3594 116.788 31.7429C117.453 32.1264 118.241 32.3182 119.153 32.3182C119.758 32.3182 120.312 32.233 120.815 32.0625C121.318 31.892 121.748 31.6364 122.106 31.2955C122.464 30.9545 122.737 30.5369 122.924 30.0426L127.961 30.375C127.706 31.5852 127.181 32.642 126.389 33.5455C125.605 34.4403 124.591 35.1392 123.346 35.642C122.11 36.1364 120.683 36.3835 119.064 36.3835ZM137.076 24.6477V36H131.63V16.3636H136.821V19.8281H137.051C137.485 18.6861 138.214 17.7827 139.237 17.1179C140.26 16.4446 141.5 16.108 142.957 16.108C144.321 16.108 145.51 16.4062 146.524 17.0028C147.538 17.5994 148.326 18.4517 148.889 19.5597C149.451 20.6591 149.733 21.9716 149.733 23.4972V36H144.287V24.4688C144.295 23.267 143.988 22.3295 143.366 21.6562C142.744 20.9744 141.887 20.6335 140.797 20.6335C140.064 20.6335 139.416 20.7912 138.853 21.1065C138.299 21.4219 137.865 21.8821 137.549 22.4872C137.243 23.0838 137.085 23.804 137.076 24.6477ZM162.459 36V9.81818H172.942C174.868 9.81818 176.475 10.1037 177.762 10.6747C179.049 11.2457 180.016 12.0384 180.664 13.0526C181.311 14.0582 181.635 15.2173 181.635 16.5298C181.635 17.5526 181.431 18.4517 181.022 19.2273C180.613 19.9943 180.05 20.625 179.334 21.1193C178.627 21.6051 177.817 21.9503 176.905 22.1548V22.4105C177.902 22.4531 178.836 22.7344 179.705 23.2543C180.583 23.7741 181.294 24.5028 181.84 25.4403C182.385 26.3693 182.658 27.4773 182.658 28.7642C182.658 30.1534 182.313 31.3935 181.623 32.4844C180.941 33.5668 179.931 34.4233 178.593 35.054C177.255 35.6847 175.605 36 173.645 36H162.459ZM167.995 31.4744H172.507C174.05 31.4744 175.175 31.1804 175.882 30.5923C176.59 29.9957 176.944 29.2031 176.944 28.2145C176.944 27.4901 176.769 26.8509 176.419 26.2969C176.07 25.7429 175.571 25.3082 174.924 24.9929C174.284 24.6776 173.522 24.5199 172.635 24.5199H167.995V31.4744ZM167.995 20.7741H172.098C172.857 20.7741 173.53 20.642 174.118 20.3778C174.715 20.1051 175.184 19.7216 175.525 19.2273C175.874 18.733 176.049 18.1406 176.049 17.4503C176.049 16.5043 175.712 15.7415 175.039 15.1619C174.374 14.5824 173.428 14.2926 172.201 14.2926H167.995V20.7741ZM186.158 36V16.3636H191.438V19.7898H191.642C192 18.571 192.601 17.6506 193.445 17.0284C194.288 16.3977 195.26 16.0824 196.359 16.0824C196.632 16.0824 196.926 16.0994 197.241 16.1335C197.557 16.1676 197.834 16.2145 198.072 16.2741V21.1065C197.817 21.0298 197.463 20.9616 197.011 20.902C196.56 20.8423 196.146 20.8125 195.771 20.8125C194.97 20.8125 194.254 20.9872 193.624 21.3366C193.001 21.6776 192.507 22.1548 192.141 22.7685C191.783 23.3821 191.604 24.0895 191.604 24.8906V36H186.158ZM208.846 36.3835C206.86 36.3835 205.143 35.9616 203.694 35.1179C202.254 34.2656 201.142 33.081 200.358 31.5639C199.574 30.0384 199.181 28.2699 199.181 26.2585C199.181 24.2301 199.574 22.4574 200.358 20.9403C201.142 19.4148 202.254 18.2301 203.694 17.3864C205.143 16.5341 206.86 16.108 208.846 16.108C210.832 16.108 212.545 16.5341 213.985 17.3864C215.434 18.2301 216.551 19.4148 217.335 20.9403C218.119 22.4574 218.511 24.2301 218.511 26.2585C218.511 28.2699 218.119 30.0384 217.335 31.5639C216.551 33.081 215.434 34.2656 213.985 35.1179C212.545 35.9616 210.832 36.3835 208.846 36.3835ZM208.872 32.1648C209.775 32.1648 210.529 31.9091 211.135 31.3977C211.74 30.8778 212.196 30.1705 212.502 29.2756C212.818 28.3807 212.975 27.3622 212.975 26.2202C212.975 25.0781 212.818 24.0597 212.502 23.1648C212.196 22.2699 211.74 21.5625 211.135 21.0426C210.529 20.5227 209.775 20.2628 208.872 20.2628C207.96 20.2628 207.193 20.5227 206.571 21.0426C205.957 21.5625 205.493 22.2699 205.177 23.1648C204.87 24.0597 204.717 25.0781 204.717 26.2202C204.717 27.3622 204.87 28.3807 205.177 29.2756C205.493 30.1705 205.957 30.8778 206.571 31.3977C207.193 31.9091 207.96 32.1648 208.872 32.1648ZM225.434 36L220.09 16.3636H225.6L228.642 29.5568H228.821L231.992 16.3636H237.4L240.621 29.4801H240.787L243.779 16.3636H249.276L243.945 36H238.179L234.804 23.6506H234.561L231.186 36H225.434ZM268.519 21.9631L263.533 22.2699C263.448 21.8437 263.265 21.4602 262.984 21.1193C262.702 20.7699 262.332 20.4929 261.871 20.2884C261.42 20.0753 260.879 19.9688 260.248 19.9688C259.404 19.9688 258.692 20.1477 258.113 20.5057C257.533 20.8551 257.244 21.3239 257.244 21.9119C257.244 22.3807 257.431 22.777 257.806 23.1009C258.181 23.4247 258.825 23.6847 259.737 23.8807L263.29 24.5966C265.2 24.9886 266.623 25.6193 267.56 26.4886C268.498 27.358 268.967 28.5 268.967 29.9148C268.967 31.2017 268.587 32.331 267.829 33.3026C267.079 34.2741 266.048 35.0327 264.735 35.5781C263.431 36.1151 261.927 36.3835 260.222 36.3835C257.623 36.3835 255.552 35.8423 254.009 34.7599C252.475 33.669 251.576 32.1861 251.312 30.3111L256.668 30.0298C256.83 30.8224 257.222 31.4276 257.844 31.8452C258.467 32.2543 259.263 32.4588 260.235 32.4588C261.19 32.4588 261.957 32.2756 262.536 31.9091C263.124 31.5341 263.423 31.0526 263.431 30.4645C263.423 29.9702 263.214 29.5653 262.805 29.25C262.396 28.9261 261.765 28.679 260.913 28.5085L257.512 27.831C255.594 27.4474 254.167 26.7827 253.229 25.8366C252.3 24.8906 251.836 23.6847 251.836 22.2188C251.836 20.9574 252.177 19.8707 252.859 18.9588C253.549 18.0469 254.516 17.3438 255.761 16.8494C257.013 16.3551 258.479 16.108 260.158 16.108C262.638 16.108 264.59 16.6321 266.013 17.6804C267.445 18.7287 268.281 20.1562 268.519 21.9631ZM281.345 36.3835C279.325 36.3835 277.586 35.9744 276.129 35.1562C274.68 34.3295 273.564 33.1619 272.779 31.6534C271.995 30.1364 271.603 28.3423 271.603 26.2713C271.603 24.2514 271.995 22.4787 272.779 20.9531C273.564 19.4276 274.667 18.2386 276.091 17.3864C277.522 16.5341 279.201 16.108 281.127 16.108C282.423 16.108 283.629 16.3168 284.745 16.7344C285.87 17.1435 286.85 17.7614 287.686 18.5881C288.529 19.4148 289.186 20.4545 289.654 21.7074C290.123 22.9517 290.358 24.4091 290.358 26.0795V27.5753H273.777V24.2003H285.231C285.231 23.4162 285.061 22.7216 284.72 22.1165C284.379 21.5114 283.906 21.0384 283.301 20.6974C282.704 20.348 282.01 20.1733 281.217 20.1733C280.39 20.1733 279.657 20.3651 279.018 20.7486C278.387 21.1236 277.893 21.6307 277.535 22.2699C277.177 22.9006 276.994 23.6037 276.985 24.3793V27.5881C276.985 28.5597 277.164 29.3991 277.522 30.1065C277.889 30.8139 278.404 31.3594 279.069 31.7429C279.734 32.1264 280.522 32.3182 281.434 32.3182C282.039 32.3182 282.593 32.233 283.096 32.0625C283.599 31.892 284.029 31.6364 284.387 31.2955C284.745 30.9545 285.018 30.5369 285.206 30.0426L290.243 30.375C289.987 31.5852 289.463 32.642 288.67 33.5455C287.886 34.4403 286.872 35.1392 285.627 35.642C284.392 36.1364 282.964 36.3835 281.345 36.3835ZM293.912 36V16.3636H299.191V19.7898H299.396C299.754 18.571 300.355 17.6506 301.199 17.0284C302.042 16.3977 303.014 16.0824 304.113 16.0824C304.386 16.0824 304.68 16.0994 304.995 16.1335C305.311 16.1676 305.588 16.2145 305.826 16.2741V21.1065C305.571 21.0298 305.217 20.9616 304.765 20.902C304.314 20.8423 303.9 20.8125 303.525 20.8125C302.724 20.8125 302.008 20.9872 301.377 21.3366C300.755 21.6776 300.261 22.1548 299.895 22.7685C299.537 23.3821 299.358 24.0895 299.358 24.8906V36H293.912Z" fill="url(#paint0_linear_128_4)"/>
<mask id="mask0_128_4" style="mask-type:luminance" maskUnits="userSpaceOnUse" x="3" y="3" width="44" height="44">
<path d="M41.4583 32.0833V16.4583L28.4375 9.13437M21.1458 9.13437L8.125 16.4583V32.0833M11.25 36.9667L24.7917 44.5833L33.125 39.8958L38.3333 36.9656" stroke="white" stroke-width="4" stroke-linecap="round" stroke-linejoin="round"/>
<path d="M21.6667 20.3646L18.5417 22.1875V29.4792L21.6667 31.3021L24.7917 33.125L27.9167 31.3021L31.0417 29.4792V22.1875L27.9167 20.3646L24.7917 18.5417L21.6667 20.3646Z" fill="white" stroke="white" stroke-width="3" stroke-linecap="round" stroke-linejoin="round"/>
<path d="M24.7917 18.5417V11.25M31.0417 28.9583L38.3333 33.125M18.5417 28.9583L11.25 33.125" stroke="white" stroke-width="4" stroke-linecap="round" stroke-linejoin="round"/>
<path d="M24.7917 11.25C26.5176 11.25 27.9167 9.85089 27.9167 8.125C27.9167 6.39911 26.5176 5 24.7917 5C23.0658 5 21.6667 6.39911 21.6667 8.125C21.6667 9.85089 23.0658 11.25 24.7917 11.25Z" fill="white" stroke="white" stroke-width="4" stroke-linecap="round" stroke-linejoin="round"/>
<path d="M8.125 38.3333C9.85089 38.3333 11.25 36.9342 11.25 35.2083C11.25 33.4825 9.85089 32.0833 8.125 32.0833C6.39911 32.0833 5 33.4825 5 35.2083C5 36.9342 6.39911 38.3333 8.125 38.3333Z" fill="white" stroke="white" stroke-width="4" stroke-linecap="round" stroke-linejoin="round"/>
<path d="M41.4583 38.3333C43.1842 38.3333 44.5833 36.9342 44.5833 35.2083C44.5833 33.4825 43.1842 32.0833 41.4583 32.0833C39.7324 32.0833 38.3333 33.4825 38.3333 35.2083C38.3333 36.9342 39.7324 38.3333 41.4583 38.3333Z" fill="white" stroke="white" stroke-width="4" stroke-linecap="round" stroke-linejoin="round"/>
</mask>
<g mask="url(#mask0_128_4)">
<path d="M-0.208313 0.833344H49.7917V50.8333H-0.208313V0.833344Z" fill="#E94794"/>
</g>
<defs>
<linearGradient id="paint0_linear_128_4" x1="302.953" y1="1" x2="69.6413" y2="50.9309" gradientUnits="userSpaceOnUse">
<stop stop-color="#30AEED"/>
<stop offset="0.47195" stop-color="white"/>
<stop offset="1" stop-color="#E94794"/>
</linearGradient>
</defs>
</svg>
